<?xml version="1.0" encoding="UTF-8"?>
<!--Generator: Apple Native CoreSVG 232.5-->
<!DOCTYPE svg
PUBLIC "-//W3C//DTD SVG 1.1//EN"
       "http://www.w3.org/Graphics/SVG/1.1/DTD/svg11.dtd">
<svg version="1.1" xmlns="http://www.w3.org/2000/svg" xmlns:xlink="http://www.w3.org/1999/xlink" width="3300" height="2200">
 <!--glyph: "", point size: 100.0, font version: "19.0d7e1", template writer version: "128"-->
 <style>.monochrome-0 {-sfsymbols-motion-group:1}
.monochrome-1 {-sfsymbols-motion-group:0}

.multicolor-0:tintColor {-sfsymbols-motion-group:1}
.multicolor-1:tintColor {-sfsymbols-motion-group:0}

.hierarchical-0:secondary {-sfsymbols-motion-group:1}
.hierarchical-1:primary {-sfsymbols-motion-group:0}

.SFSymbolsPreviewWireframe {fill:none;opacity:1.0;stroke:black;stroke-width:0.5}
</style>
 <g id="Notes">
  <rect height="2200" id="artboard" style="fill:white;opacity:1" width="3300" x="0" y="0"/>
  <line style="fill:none;stroke:black;opacity:1;stroke-width:0.5;" x1="263" x2="3036" y1="292" y2="292"/>
  <text style="stroke:none;fill:black;font-family:sans-serif;font-size:13;font-weight:bold;" transform="matrix(1 0 0 1 263 322)">Weight/Scale Variations</text>
  <text style="stroke:none;fill:black;font-family:sans-serif;font-size:13;text-anchor:middle;" transform="matrix(1 0 0 1 559.711 322)">Ultralight</text>
  <text style="stroke:none;fill:black;font-family:sans-serif;font-size:13;text-anchor:middle;" transform="matrix(1 0 0 1 856.422 322)">Thin</text>
  <text style="stroke:none;fill:black;font-family:sans-serif;font-size:13;text-anchor:middle;" transform="matrix(1 0 0 1 1153.13 322)">Light</text>
  <text style="stroke:none;fill:black;font-family:sans-serif;font-size:13;text-anchor:middle;" transform="matrix(1 0 0 1 1449.84 322)">Regular</text>
  <text style="stroke:none;fill:black;font-family:sans-serif;font-size:13;text-anchor:middle;" transform="matrix(1 0 0 1 1746.56 322)">Medium</text>
  <text style="stroke:none;fill:black;font-family:sans-serif;font-size:13;text-anchor:middle;" transform="matrix(1 0 0 1 2043.27 322)">Semibold</text>
  <text style="stroke:none;fill:black;font-family:sans-serif;font-size:13;text-anchor:middle;" transform="matrix(1 0 0 1 2339.98 322)">Bold</text>
  <text style="stroke:none;fill:black;font-family:sans-serif;font-size:13;text-anchor:middle;" transform="matrix(1 0 0 1 2636.69 322)">Heavy</text>
  <text style="stroke:none;fill:black;font-family:sans-serif;font-size:13;text-anchor:middle;" transform="matrix(1 0 0 1 2933.4 322)">Black</text>
  <line style="fill:none;stroke:black;opacity:1;stroke-width:0.5;" x1="263" x2="3036" y1="1903" y2="1903"/>
  <g transform="matrix(0.2 0 0 0.2 263 1933)">
   <path d="m46.2402 4.15039c21.5332 0 39.4531-17.8711 39.4531-39.4043s-17.9688-39.4043-39.502-39.4043c-21.4844 0-39.3555 17.8711-39.3555 39.4043s17.9199 39.4043 39.4043 39.4043Zm0-7.42188c-17.7246 0-31.8848-14.209-31.8848-31.9824s14.1113-31.9824 31.8359-31.9824c17.7734 0 32.0312 14.209 32.0312 31.9824s-14.209 31.9824-31.9824 31.9824Zm-17.9688-31.9824c0 2.14844 1.51367 3.61328 3.75977 3.61328h10.498v10.5957c0 2.19727 1.46484 3.71094 3.61328 3.71094 2.24609 0 3.71094-1.51367 3.71094-3.71094v-10.5957h10.5957c2.19727 0 3.71094-1.46484 3.71094-3.61328 0-2.19727-1.51367-3.71094-3.71094-3.71094h-10.5957v-10.5469c0-2.24609-1.46484-3.75977-3.71094-3.75977-2.14844 0-3.61328 1.51367-3.61328 3.75977v10.5469h-10.498c-2.24609 0-3.75977 1.51367-3.75977 3.71094Z"/>
  </g>
  <g transform="matrix(0.2 0 0 0.2 281.506 1933)">
   <path d="m58.5449 14.5508c27.2461 0 49.8047-22.6074 49.8047-49.8047 0-27.2461-22.6074-49.8047-49.8535-49.8047-27.1973 0-49.7559 22.5586-49.7559 49.8047 0 27.1973 22.6074 49.8047 49.8047 49.8047Zm0-8.30078c-23.0469 0-41.4551-18.457-41.4551-41.5039s18.3594-41.5039 41.4062-41.5039 41.5527 18.457 41.5527 41.5039-18.457 41.5039-41.5039 41.5039Zm-22.6562-41.5039c0 2.39258 1.66016 4.00391 4.15039 4.00391h14.3555v14.4043c0 2.44141 1.66016 4.15039 4.05273 4.15039 2.44141 0 4.15039-1.66016 4.15039-4.15039v-14.4043h14.4043c2.44141 0 4.15039-1.61133 4.15039-4.00391 0-2.44141-1.70898-4.15039-4.15039-4.15039h-14.4043v-14.3555c0-2.49023-1.70898-4.19922-4.15039-4.19922-2.39258 0-4.05273 1.70898-4.05273 4.19922v14.3555h-14.3555c-2.49023 0-4.15039 1.70898-4.15039 4.15039Z"/>
  </g>
  <g transform="matrix(0.2 0 0 0.2 304.924 1933)">
   <path d="m74.8535 28.3203c34.8145 0 63.623-28.8086 63.623-63.5742 0-34.8145-28.8574-63.623-63.6719-63.623-34.7656 0-63.5254 28.8086-63.5254 63.623 0 34.7656 28.8086 63.5742 63.5742 63.5742Zm0-9.08203c-30.1758 0-54.4434-24.3164-54.4434-54.4922 0-30.2246 24.2188-54.4922 54.3945-54.4922 30.2246 0 54.541 24.2676 54.541 54.4922 0 30.1758-24.2676 54.4922-54.4922 54.4922Zm-28.8574-54.4922c0 2.58789 1.85547 4.39453 4.58984 4.39453h19.7266v19.7754c0 2.68555 1.85547 4.58984 4.44336 4.58984 2.68555 0 4.54102-1.85547 4.54102-4.58984v-19.7754h19.7754c2.68555 0 4.58984-1.80664 4.58984-4.39453 0-2.73438-1.85547-4.58984-4.58984-4.58984h-19.7754v-19.7266c0-2.73438-1.85547-4.63867-4.54102-4.63867-2.58789 0-4.44336 1.9043-4.44336 4.63867v19.7266h-19.7266c-2.73438 0-4.58984 1.85547-4.58984 4.58984Z"/>
  </g>
  <text style="stroke:none;fill:black;font-family:sans-serif;font-size:13;font-weight:bold;" transform="matrix(1 0 0 1 263 1953)">Design Variations</text>
  <text style="stroke:none;fill:black;font-family:sans-serif;font-size:13;" transform="matrix(1 0 0 1 263 1971)">Symbols are supported in up to nine weights and three scales.</text>
  <text style="stroke:none;fill:black;font-family:sans-serif;font-size:13;" transform="matrix(1 0 0 1 263 1989)">For optimal layout with text and other symbols, vertically align</text>
  <text style="stroke:none;fill:black;font-family:sans-serif;font-size:13;" transform="matrix(1 0 0 1 263 2007)">symbols with the adjacent text.</text>
  <line style="fill:none;stroke:#00AEEF;stroke-width:0.5;opacity:1.0;" x1="776" x2="776" y1="1919" y2="1933"/>
  <g transform="matrix(0.2 0 0 0.2 776 1933)">
   <path d="m16.5527 0.78125c2.58789 0 3.85742-0.976562 4.78516-3.71094l6.29883-17.2363h28.8086l6.29883 17.2363c0.927734 2.73438 2.19727 3.71094 4.73633 3.71094 2.58789 0 4.24805-1.5625 4.24805-4.00391 0-0.830078-0.146484-1.61133-0.537109-2.63672l-22.9004-60.9863c-1.12305-2.97852-3.125-4.49219-6.25-4.49219-3.02734 0-5.07812 1.46484-6.15234 4.44336l-22.9004 61.084c-0.390625 1.02539-0.537109 1.80664-0.537109 2.63672 0 2.44141 1.5625 3.95508 4.10156 3.95508Zm13.4766-28.3691 11.8652-32.8613h0.244141l11.8652 32.8613Z"/>
  </g>
  <line style="fill:none;stroke:#00AEEF;stroke-width:0.5;opacity:1.0;" x1="792.836" x2="792.836" y1="1919" y2="1933"/>
  <text style="stroke:none;fill:black;font-family:sans-serif;font-size:13;font-weight:bold;" transform="matrix(1 0 0 1 776 1953)">Margins</text>
  <text style="stroke:none;fill:black;font-family:sans-serif;font-size:13;" transform="matrix(1 0 0 1 776 1971)">Leading and trailing margins on the left and right side of each symbol</text>
  <text style="stroke:none;fill:black;font-family:sans-serif;font-size:13;" transform="matrix(1 0 0 1 776 1989)">can be adjusted by modifying the x-location of the margin guidelines.</text>
  <text style="stroke:none;fill:black;font-family:sans-serif;font-size:13;" transform="matrix(1 0 0 1 776 2007)">Modifications are automatically applied proportionally to all</text>
  <text style="stroke:none;fill:black;font-family:sans-serif;font-size:13;" transform="matrix(1 0 0 1 776 2025)">scales and weights.</text>
  <g transform="matrix(0.2 0 0 0.2 1289 1933)">
   <path d="m14.209 9.32617 8.49609 8.54492c4.29688 4.3457 9.22852 4.05273 13.8672-1.07422l53.4668-58.9355-4.83398-4.88281-53.0762 58.3984c-1.75781 2.00195-3.41797 2.49023-5.76172 0.146484l-5.85938-5.81055c-2.34375-2.29492-1.80664-4.00391 0.195312-5.81055l57.373-54.0039-4.88281-4.83398-57.959 54.4434c-4.93164 4.58984-5.32227 9.47266-1.02539 13.8184Zm32.0801-90.9668c-2.09961 2.05078-2.24609 4.93164-1.07422 6.88477 1.17188 1.80664 3.4668 2.97852 6.68945 2.14844 7.32422-1.70898 14.9414-2.00195 22.0703 2.68555l-2.92969 7.27539c-1.70898 4.15039-0.830078 7.08008 1.85547 9.81445l11.4746 11.5723c2.44141 2.44141 4.49219 2.53906 7.32422 2.05078l5.32227-0.976562 3.32031 3.36914-0.195312 2.7832c-0.195312 2.49023 0.439453 4.39453 2.88086 6.78711l3.80859 3.71094c2.39258 2.39258 5.46875 2.53906 7.8125 0.195312l14.5508-14.5996c2.34375-2.34375 2.24609-5.32227-0.146484-7.71484l-3.85742-3.80859c-2.39258-2.39258-4.24805-3.17383-6.64062-2.97852l-2.88086 0.244141-3.22266-3.17383 1.2207-5.61523c0.634766-2.83203-0.146484-5.0293-3.07617-7.95898l-10.9863-10.9375c-16.6992-16.6016-38.8672-16.2109-53.3203-1.75781Zm7.4707 1.85547c12.1582-8.88672 28.6133-7.37305 39.7461 3.75977l12.1582 12.0605c1.17188 1.17188 1.36719 2.09961 1.02539 3.80859l-1.61133 7.42188 7.51953 7.42188 4.93164-0.292969c1.26953-0.0488281 1.66016 0.0488281 2.63672 1.02539l2.88086 2.88086-12.207 12.207-2.88086-2.88086c-0.976562-0.976562-1.12305-1.36719-1.07422-2.68555l0.341797-4.88281-7.4707-7.42188-7.61719 1.26953c-1.61133 0.341797-2.34375 0.195312-3.56445-0.976562l-10.0098-10.0098c-1.26953-1.17188-1.41602-2.00195-0.634766-3.85742l4.39453-10.4492c-7.8125-7.27539-17.9688-10.4004-28.125-7.42188-0.78125 0.195312-1.07422-0.439453-0.439453-0.976562Z"/>
  </g>
  <text style="stroke:none;fill:black;font-family:sans-serif;font-size:13;font-weight:bold;" transform="matrix(1 0 0 1 1289 1953)">Exporting</text>
  <text style="stroke:none;fill:black;font-family:sans-serif;font-size:13;" transform="matrix(1 0 0 1 1289 1971)">Symbols should be outlined when exporting to ensure the</text>
  <text style="stroke:none;fill:black;font-family:sans-serif;font-size:13;" transform="matrix(1 0 0 1 1289 1989)">design is preserved when submitting to Xcode.</text>
  <text id="template-version" style="stroke:none;fill:black;font-family:sans-serif;font-size:13;text-anchor:end;" transform="matrix(1 0 0 1 3036 1933)">Template v.5.0</text>
  <text style="stroke:none;fill:black;font-family:sans-serif;font-size:13;text-anchor:end;" transform="matrix(1 0 0 1 3036 1951)">Requires Xcode 15 or greater</text>
  <text id="descriptive-name" style="stroke:none;fill:black;font-family:sans-serif;font-size:13;text-anchor:end;" transform="matrix(1 0 0 1 3036 1969)">Generated from noti</text>
  <text style="stroke:none;fill:black;font-family:sans-serif;font-size:13;text-anchor:end;" transform="matrix(1 0 0 1 3036 1987)">Typeset at 100.0 points</text>
  <text style="stroke:none;fill:black;font-family:sans-serif;font-size:13;" transform="matrix(1 0 0 1 263 726)">Small</text>
  <text style="stroke:none;fill:black;font-family:sans-serif;font-size:13;" transform="matrix(1 0 0 1 263 1156)">Medium</text>
  <text style="stroke:none;fill:black;font-family:sans-serif;font-size:13;" transform="matrix(1 0 0 1 263 1586)">Large</text>
 </g>
 <g id="Guides">
  <g id="H-reference" style="fill:#27AAE1;stroke:none;" transform="matrix(1 0 0 1 339 696)">
   <path d="M0.993654 0L3.63775 0L29.3281-67.1323L30.0303-67.1323L30.0303-70.459L28.1226-70.459ZM11.6885-24.4799L46.9815-24.4799L46.2315-26.7285L12.4385-26.7285ZM55.1196 0L57.7637 0L30.6382-70.459L29.4326-70.459L29.4326-67.1323Z"/>
  </g>
  <line id="Baseline-S" style="fill:none;stroke:#27AAE1;opacity:1;stroke-width:0.5;" x1="263" x2="3036" y1="696" y2="696"/>
  <line id="Capline-S" style="fill:none;stroke:#27AAE1;opacity:1;stroke-width:0.5;" x1="263" x2="3036" y1="625.541" y2="625.541"/>
  <g id="H-reference" style="fill:#27AAE1;stroke:none;" transform="matrix(1 0 0 1 339 1126)">
   <path d="M0.993654 0L3.63775 0L29.3281-67.1323L30.0303-67.1323L30.0303-70.459L28.1226-70.459ZM11.6885-24.4799L46.9815-24.4799L46.2315-26.7285L12.4385-26.7285ZM55.1196 0L57.7637 0L30.6382-70.459L29.4326-70.459L29.4326-67.1323Z"/>
  </g>
  <line id="Baseline-M" style="fill:none;stroke:#27AAE1;opacity:1;stroke-width:0.5;" x1="263" x2="3036" y1="1126" y2="1126"/>
  <line id="Capline-M" style="fill:none;stroke:#27AAE1;opacity:1;stroke-width:0.5;" x1="263" x2="3036" y1="1055.54" y2="1055.54"/>
  <g id="H-reference" style="fill:#27AAE1;stroke:none;" transform="matrix(1 0 0 1 339 1556)">
   <path d="M0.993654 0L3.63775 0L29.3281-67.1323L30.0303-67.1323L30.0303-70.459L28.1226-70.459ZM11.6885-24.4799L46.9815-24.4799L46.2315-26.7285L12.4385-26.7285ZM55.1196 0L57.7637 0L30.6382-70.459L29.4326-70.459L29.4326-67.1323Z"/>
  </g>
  <line id="Baseline-L" style="fill:none;stroke:#27AAE1;opacity:1;stroke-width:0.5;" x1="263" x2="3036" y1="1556" y2="1556"/>
  <line id="Capline-L" style="fill:none;stroke:#27AAE1;opacity:1;stroke-width:0.5;" x1="263" x2="3036" y1="1485.54" y2="1485.54"/>
  <line id="left-margin-Ultralight-S" style="fill:none;stroke:#00AEEF;stroke-width:0.5;opacity:1.0;" x1="515.352" x2="515.352" y1="600.785" y2="720.121"/>
  <line id="right-margin-Ultralight-S" style="fill:none;stroke:#00AEEF;stroke-width:0.5;opacity:1.0;" x1="604.07" x2="604.07" y1="600.785" y2="720.121"/>
  <line id="left-margin-Regular-S" style="fill:none;stroke:#FF3B30;stroke-width:0.5;opacity:1.0;" x1="1401.75" x2="1401.75" y1="600.785" y2="720.121"/>
  <line id="right-margin-Regular-S" style="fill:none;stroke:#00AEEF;stroke-width:0.5;opacity:1.0;" x1="1497.94" x2="1497.94" y1="600.785" y2="720.121"/>
  <line id="left-margin-Black-S" style="fill:none;stroke:#00AEEF;stroke-width:0.5;opacity:1.0;" x1="2883.2" x2="2883.2" y1="600.785" y2="720.121"/>
  <line id="right-margin-Black-S" style="fill:none;stroke:#00AEEF;stroke-width:0.5;opacity:1.0;" x1="2983.6" x2="2983.6" y1="600.785" y2="720.121"/>
 </g>
 <g id="Symbols">
  <g id="Black-L" transform="matrix(1 0 0 1 2859.5 1556)">
   <path class="monochrome-0 multicolor-0:tintColor hierarchical-0:secondary SFSymbolsPreviewWireframe" d="M103.41-87.91L49.5105-44.27L49.5105-44.42C47.3405-42.66 48.1805-41.34 50.7705-41.34L79.7505-41.34L65.6105 8.74C65.1205 10.49 65.5405 11.01 67.4305 11.01L81.7105 11.01C80.3105 7.35 79.5405 3.32 79.5405-0.93C79.5405-17.18 90.8105-30.65 105.58-33.36L107.89-41.49L121.33-89.45C123.01-96.04 116.36-98.74 103.41-87.91ZM-2.49953 11.01L21.8605 11.01C22.9805 11.01 23.1905 10.71 23.4705 9.84L52.5205-91.93C52.9405-93.69 52.5905-94.2 50.7005-94.2L37.6805-94.2C30.1205-94.2 23.7505-89.52 21.7205-82.49L-4.31953 8.74C-4.73953 10.27-4.17953 11.01-2.49953 11.01Z"/>
   <path class="monochrome-1 multicolor-1:tintColor hierarchical-1:primary SFSymbolsPreviewWireframe" d="M111.04 24.77C124.57 24.77 135.54 13.3 135.54-0.85C135.54-15.01 124.57-26.48 111.04-26.48C97.5105-26.48 86.5405-15.01 86.5405-0.85C86.5405 13.3 97.5105 24.77 111.04 24.77Z"/>
  </g>
  <g id="Regular-L" transform="matrix(1 0 0 1 1393 1556)">
   <path class="monochrome-0 multicolor-0:tintColor hierarchical-0:secondary SFSymbolsPreviewWireframe" d="M74.275-87.91L20.375-44.27L20.375-44.42C18.205-42.66 19.045-41.34 21.635-41.34L50.615-41.34L36.475 8.74C35.985 10.49 36.405 11.01 38.295 11.01L52.575 11.01C51.175 7.35 50.405 3.32 50.405-0.93C50.405-17.18 61.675-30.65 76.445-33.36L78.755-41.49L92.195-89.45C93.875-96.04 87.225-98.74 74.275-87.91ZM-31.635 11.01L-7.27496 11.01C-6.15496 11.01-5.94496 10.71-5.66496 9.84L23.385-91.93C23.805-93.69 23.455-94.2 21.565-94.2L8.54504-94.2C0.985036-94.2-5.38496-89.52-7.41496-82.49L-33.455 8.74C-33.875 10.27-33.315 11.01-31.635 11.01Z"/>
   <path class="monochrome-1 multicolor-1:tintColor hierarchical-1:primary SFSymbolsPreviewWireframe" d="M81.905 24.77C95.435 24.77 106.405 13.3 106.405-0.85C106.405-15.01 95.435-26.48 81.905-26.48C68.375-26.48 57.405-15.01 57.405-0.85C57.405 13.3 68.375 24.77 81.905 24.77Z"/>
  </g>
  <g id="Ultralight-L" transform="matrix(1 0 0 1 482.167 1556)">
   <path class="monochrome-0 multicolor-0:tintColor hierarchical-0:secondary SFSymbolsPreviewWireframe" d="M119.809-87.91L65.9086-44.27L65.9086-44.42C63.7386-42.66 64.5786-41.34 67.1686-41.34L96.1486-41.34L82.0086 8.74C81.5186 10.49 81.9386 11.01 83.8286 11.01L98.1086 11.01C96.7086 7.35 95.9386 3.32 95.9386-0.93C95.9386-17.18 107.209-30.65 121.979-33.36L124.289-41.49L137.729-89.45C139.409-96.04 132.759-98.74 119.809-87.91ZM13.8986 11.01L38.2586 11.01C39.3786 11.01 39.5886 10.71 39.8686 9.84L68.9186-91.93C69.3386-93.69 68.9886-94.2 67.0986-94.2L54.0786-94.2C46.5186-94.2 40.1486-89.52 38.1186-82.49L12.0786 8.74C11.6586 10.27 12.2186 11.01 13.8986 11.01Z"/>
   <path class="monochrome-1 multicolor-1:tintColor hierarchical-1:primary SFSymbolsPreviewWireframe" d="M127.438 24.77C140.969 24.77 151.938 13.3 151.938-0.85C151.938-15.01 140.969-26.48 127.438-26.48C113.907-26.48 102.938-15.01 102.938-0.85C102.938 13.3 113.907 24.77 127.438 24.77Z"/>
  </g>
  <g id="Black-M" transform="matrix(1 0 0 1 2869.42 1126)">
   <path class="monochrome-0 multicolor-0:tintColor hierarchical-0:secondary SFSymbolsPreviewWireframe" d="M92.0588-77.37L48.9388-42.46L48.9388-42.58C47.1988-41.17 47.8688-40.12 49.9388-40.12L73.1288-40.12L61.8188-0.06C61.4188 1.35 61.7588 1.76 63.2688 1.76L74.6988 1.76C73.5788-1.17 72.9588-4.39 72.9588-7.79C72.9588-20.79 81.9788-31.57 93.7888-33.74L95.6388-40.24L106.389-78.6C107.739-83.87 102.419-86.04 92.0588-77.37ZM7.32885 1.76L26.8188 1.76C27.7088 1.76 27.8788 1.53 28.1088 0.82L51.3488-80.59C51.6788-82 51.3988-82.41 49.8888-82.41L39.4688-82.41C33.4288-82.41 28.3288-78.66 26.7088-73.04L5.86885-0.06C5.53885 1.17 5.98885 1.76 7.32885 1.76Z"/>
   <path class="monochrome-1 multicolor-1:tintColor hierarchical-1:primary SFSymbolsPreviewWireframe" d="M98.1588 12.77C108.989 12.77 117.759 3.59 117.759-7.73C117.759-19.05 108.989-28.23 98.1588-28.23C87.3388-28.23 78.5588-19.05 78.5588-7.73C78.5588 3.59 87.3388 12.77 98.1588 12.77Z"/>
  </g>
  <g id="Regular-M" transform="matrix(1 0 0 1 1407.96 1126)">
   <path class="monochrome-0 multicolor-0:tintColor hierarchical-0:secondary SFSymbolsPreviewWireframe" d="M51.6172-77.37L8.49716-42.46L8.49716-42.58C6.76716-41.17 7.43716-40.12 9.50716-40.12L32.6872-40.12L21.3772-0.06C20.9872 1.35 21.3272 1.76 22.8372 1.76L34.2572 1.76C33.1372-1.17 32.5272-4.39 32.5272-7.79C32.5272-20.79 41.5372-31.57 53.3572-33.74L55.2072-40.24L65.9572-78.6C67.2972-83.87 61.9772-86.04 51.6172-77.37ZM-33.1128 1.76L-13.6228 1.76C-12.7228 1.76-12.5528 1.53-12.3328 0.82L10.9072-80.59C11.2472-82 10.9672-82.41 9.44716-82.41L-0.962843-82.41C-7.01284-82.41-12.1128-78.66-13.7328-73.04L-34.5628-0.06C-34.9028 1.17-34.4528 1.76-33.1128 1.76Z"/>
   <path class="monochrome-1 multicolor-1:tintColor hierarchical-1:primary SFSymbolsPreviewWireframe" d="M57.7272 12.77C68.5472 12.77 77.3272 3.59 77.3272-7.73C77.3272-19.05 68.5472-28.23 57.7272-28.23C46.8972-28.23 38.1272-19.05 38.1272-7.73C38.1272 3.59 46.8972 12.77 57.7272 12.77Z"/>
  </g>
  <g id="Ultralight-M" transform="matrix(1 0 0 1 499.277 1126)">
   <path class="monochrome-0 multicolor-0:tintColor hierarchical-0:secondary SFSymbolsPreviewWireframe" d="M92.4415-77.37L49.3215-42.46L49.3215-42.58C47.5855-41.17 48.2575-40.12 50.3295-40.12L73.5135-40.12L62.2015-0.06C61.8095 1.35 62.1455 1.76 63.6575 1.76L75.0815 1.76C73.9615-1.17 73.3455-4.39 73.3455-7.79C73.3455-20.79 82.3615-31.57 94.1775-33.74L96.0255-40.24L106.778-78.6C108.122-83.87 102.802-86.04 92.4415-77.37ZM7.71452 1.76L27.2025 1.76C28.0985 1.76 28.2665 1.53 28.4905 0.82L51.7305-80.59C52.0665-82 51.7865-82.41 50.2745-82.41L39.8585-82.41C33.8105-82.41 28.7145-78.66 27.0905-73.04L6.25852-0.06C5.92252 1.17 6.37052 1.76 7.71452 1.76Z"/>
   <path class="monochrome-1 multicolor-1:tintColor hierarchical-1:primary SFSymbolsPreviewWireframe" d="M98.5465 12.77C109.372 12.77 118.147 3.59 118.147-7.73C118.147-19.05 109.372-28.23 98.5465-28.23C87.7215-28.23 78.9465-19.05 78.9465-7.73C78.9465 3.59 87.7215 12.77 98.5465 12.77Z"/>
  </g>
  <g id="Black-S" transform="matrix(1 0 0 1 2883.2 696)">
   <path class="monochrome-0 multicolor-0:tintColor hierarchical-0:secondary SFSymbolsPreviewWireframe" d="M72.92-66.836L40.58-40.654L40.58-40.742C39.28-39.688 39.78-38.897 41.34-38.897L58.73-38.897L50.24-8.85C49.95-7.795 50.2-7.488 51.33-7.488L59.9-7.488C59.06-9.684 58.6-12.1 58.6-14.648C58.6-24.401 65.36-32.484 74.22-34.109L75.61-38.985L83.67-67.759C84.68-71.712 80.69-73.338 72.92-66.836ZM9.38-7.487L23.99-7.487C24.66-7.487 24.79-7.663 24.96-8.19L42.39-69.252C42.64-70.306 42.43-70.614 41.3-70.614L33.48-70.614C28.95-70.614 25.13-67.802 23.91-63.585L8.28-8.849C8.03-7.927 8.37-7.487 9.38-7.487Z"/>
   <path class="monochrome-1 multicolor-1:tintColor hierarchical-1:primary SFSymbolsPreviewWireframe" d="M77.5 0.772C85.62 0.772 92.2-6.112 92.2-14.603C92.2-23.095 85.62-29.979 77.5-29.979C69.38-29.979 62.8-23.095 62.8-14.603C62.8-6.112 69.38 0.772 77.5 0.772Z"/>
  </g>
  <g id="Regular-S" transform="matrix(1 0 0 1 1401.75 696)">
   <path class="monochrome-0 multicolor-0:tintColor hierarchical-0:secondary SFSymbolsPreviewWireframe" d="M62.03-75.007L14.17-36.26L14.17-36.39C12.23-34.83 12.98-33.659 15.28-33.659L41.02-33.659L28.46 10.809C28.02 12.369 28.39 12.824 30.08 12.824L42.76 12.824C41.52 9.574 40.82 5.998 40.82 2.227C40.82-12.206 50.84-24.168 63.95-26.573L66-33.789L77.94-76.371C79.43-82.223 73.53-84.629 62.03-75.007ZM-32.02 12.825L-10.38 12.825C-9.39 12.825-9.21 12.565-8.96 11.784L16.83-78.581C17.21-80.142 16.9-80.597 15.22-80.597L3.66-80.597C-3.06-80.597-8.71-76.436-10.51-70.195L-33.63 10.81C-34 12.174-33.51 12.825-32.02 12.825Z"/>
   <path class="monochrome-1 multicolor-1:tintColor hierarchical-1:primary SFSymbolsPreviewWireframe" d="M68.79 25.048C80.82 25.048 90.55 14.86 90.55 2.294C90.55-10.273 80.82-20.46 68.79-20.46C56.78-20.46 47.04-10.273 47.04 2.294C47.04 14.86 56.78 25.048 68.79 25.048Z"/>
  </g>
  <g id="Ultralight-S" transform="matrix(1 0 0 1 515.352 696)">
   <path class="monochrome-0 multicolor-0:tintColor hierarchical-0:secondary SFSymbolsPreviewWireframe" d="M67.083-66.836L34.743-40.654L34.743-40.742C33.441-39.688 33.945-38.897 35.499-38.897L52.887-38.897L44.403-8.85C44.109-7.795 44.361-7.488 45.495-7.488L54.063-7.488C53.223-9.684 52.761-12.1 52.761-14.648C52.761-24.401 59.523-32.484 68.385-34.109L69.771-38.985L77.835-67.759C78.843-71.712 74.853-73.338 67.083-66.836ZM3.537-7.487L18.153-7.487C18.825-7.487 18.951-7.663 19.119-8.19L36.549-69.252C36.801-70.306 36.591-70.614 35.457-70.614L27.645-70.614C23.109-70.614 19.287-67.802 18.069-63.585L2.445-8.849C2.193-7.927 2.529-7.487 3.537-7.487Z"/>
   <path class="monochrome-1 multicolor-1:tintColor hierarchical-1:primary SFSymbolsPreviewWireframe" d="M71.661 0.772C79.779 0.772 86.361-6.112 86.361-14.603C86.361-23.095 79.779-29.979 71.661-29.979C63.542-29.979 56.96-23.095 56.96-14.603C56.96-6.112 63.542 0.772 71.661 0.772Z"/>
  </g>
 </g>
</svg>
