<svg width="23" height="23" viewBox="0 0 23 23" fill="none" xmlns="http://www.w3.org/2000/svg">
<path d="M7.68164 1.97656H2.69531C2.29775 1.97656 1.97656 2.29775 1.97656 2.69531V7.72656C1.97656 7.92422 2.13828 8.08594 2.33594 8.08594H3.41406C3.61172 8.08594 3.77344 7.92422 3.77344 7.72656V3.77344H7.68164C7.8793 3.77344 8.04102 3.61172 8.04102 3.41406V2.33594C8.04102 2.13828 7.8793 1.97656 7.68164 1.97656ZM20.6641 14.9141H19.5859C19.3883 14.9141 19.2266 15.0758 19.2266 15.2734V19.2266H15.3184C15.1207 19.2266 14.959 19.3883 14.959 19.5859V20.6641C14.959 20.8617 15.1207 21.0234 15.3184 21.0234H20.3047C20.7022 21.0234 21.0234 20.7022 21.0234 20.3047V15.2734C21.0234 15.0758 20.8617 14.9141 20.6641 14.9141ZM7.68164 19.2266H3.77344V15.2734C3.77344 15.0758 3.61172 14.9141 3.41406 14.9141H2.33594C2.13828 14.9141 1.97656 15.0758 1.97656 15.2734V20.3047C1.97656 20.7022 2.29775 21.0234 2.69531 21.0234H7.68164C7.8793 21.0234 8.04102 20.8617 8.04102 20.6641V19.5859C8.04102 19.3883 7.8793 19.2266 7.68164 19.2266ZM20.3047 1.97656H15.3184C15.1207 1.97656 14.959 2.13828 14.959 2.33594V3.41406C14.959 3.61172 15.1207 3.77344 15.3184 3.77344H19.2266V7.72656C19.2266 7.92422 19.3883 8.08594 19.5859 8.08594H20.6641C20.8617 8.08594 21.0234 7.92422 21.0234 7.72656V2.69531C21.0234 2.29775 20.7022 1.97656 20.3047 1.97656Z" fill="white"/>
</svg>
