<svg width="111" height="23" viewBox="0 0 111 23" fill="none" xmlns="http://www.w3.org/2000/svg">
<path d="M3.94988 0.640625V4.69111C3.94988 5.9262 3.92504 7.25935 3.92504 7.25935C4.54196 6.17268 5.70263 5.28347 7.50437 5.28347C11.034 5.28347 11.9477 7.53068 11.9477 10.4945V17.6814H7.9736V11.285C7.9736 9.80341 7.77624 8.51929 6.12218 8.51929C4.46812 8.51929 3.94988 9.90213 3.94988 11.7054V17.6821H0V0.641296H3.94988V0.640625Z" fill="#D0C5FF"/>
<path d="M16.4649 0C17.7981 0 18.711 0.839513 18.711 2.04975C18.711 3.26 17.7974 4.09951 16.4649 4.09951C15.1324 4.09951 14.2188 3.28485 14.2188 2.04975C14.2188 0.814663 15.1324 0 16.4649 0ZM18.4398 5.50721V17.6828H14.49V5.50721H18.4398Z" fill="#D0C5FF"/>
<path d="M32.0906 20.4743C30.9057 21.5858 29.2765 22.4005 26.4873 22.4005C23.6981 22.4005 21.4271 21.2151 20.588 20.5979L22.2172 17.9551C22.9328 18.4984 24.7842 19.3379 26.4135 19.3379C28.0427 19.3379 28.857 18.8194 29.2772 18.3748C29.6967 17.9054 30.0176 17.041 30.0176 15.9544V15.5306C28.9717 16.7079 28.0178 17.2882 26.1422 17.2882C23.106 17.2882 20.3906 15.2136 20.3906 11.1879C20.3906 7.38461 23.155 5.28516 26.1422 5.28516C28.142 5.28516 29.4135 6.22675 29.9928 7.06358V5.50746H33.942V15.2129C33.942 17.8308 33.2754 19.3621 32.0906 20.4736V20.4743ZM30.1156 11.3612C30.1156 9.70637 29.0295 8.37322 27.2767 8.37322C25.524 8.37322 24.413 9.70704 24.413 11.3612C24.413 13.0154 25.573 14.2753 27.2767 14.2753C28.9805 14.2753 30.1156 13.0161 30.1156 11.3612Z" fill="#D0C5FF"/>
<path d="M40.6569 0.640625V4.69111C40.6569 5.9262 40.6321 7.25935 40.6321 7.25935C41.249 6.17268 42.4097 5.28347 44.2114 5.28347C47.7411 5.28347 48.6547 7.53068 48.6547 10.4945V17.6814H44.6806V11.285C44.6806 9.80341 44.4833 8.51929 42.8292 8.51929C41.1752 8.51929 40.6569 9.90213 40.6569 11.7054V17.6821H36.707V0.641296H40.6569V0.640625Z" fill="#D0C5FF"/>
<path d="M59.8092 5.50746L59.7843 7.06358C60.6731 6.00176 62.0305 5.28516 63.8819 5.28516C67.3874 5.28516 69.6087 8.02667 69.6087 11.6077C69.6087 15.1887 67.3874 17.9544 63.857 17.9544C62.0553 17.9544 60.7718 17.2875 60.0065 16.1518V22.1533H56.0566V5.50813H59.8085L59.8092 5.50746ZM65.5856 11.558C65.5856 9.68085 64.4256 8.39673 62.7219 8.39673C61.0182 8.39673 59.883 9.68085 59.883 11.558C59.883 13.4351 61.043 14.7193 62.7219 14.7193C64.4008 14.7193 65.5856 13.4351 65.5856 11.558Z" fill="#D0C5FF"/>
<path d="M73.5372 0C74.8703 0 75.7833 0.839512 75.7833 2.04975C75.7833 3.26 74.8697 4.09951 73.5372 4.09951C72.2046 4.09951 71.291 3.28485 71.291 2.04975C71.291 0.814663 72.2046 0 73.5372 0ZM75.5121 5.50721V17.6828H71.5622V5.50721H75.5121Z" fill="#D0C5FF"/>
<path d="M82.5953 17.9545C81.1883 17.9545 80.2505 17.5347 79.6329 16.8181C79.016 16.1022 78.7689 15.0894 78.7689 13.2371V8.51968H77.041V5.53168H78.7689V2.22266H82.743V5.53168H85.4335V8.51968H82.743V12.8912C82.743 13.9282 82.8913 14.1753 83.0887 14.3976C83.2612 14.5951 83.5082 14.6938 84.0265 14.6938C84.6434 14.6938 85.2113 14.4715 85.2113 14.4715L85.4087 17.5582C85.1126 17.6321 84.0265 17.9531 82.5946 17.9531L82.5953 17.9545Z" fill="#D0C5FF"/>
<path d="M92.7151 17.9544C89.3828 17.9544 86.2969 15.6824 86.2969 11.6319C86.2969 7.58139 89.4318 5.28516 92.7641 5.28516C95.8742 5.28516 97.2812 6.56928 97.2812 6.56928L96.4173 9.55727C96.0716 9.28594 94.9854 8.4706 93.2823 8.4706C91.5793 8.4706 90.2709 9.63115 90.2709 11.5573C90.2709 13.4835 91.4806 14.6937 93.332 14.6937C95.1834 14.6937 96.4173 13.5084 96.4173 13.5084L97.3551 16.4963C97.2315 16.5951 95.948 17.9537 92.7144 17.9537L92.7151 17.9544Z" fill="#D0C5FF"/>
<path d="M102.962 0.640625V4.69111C102.962 5.9262 102.937 7.25935 102.937 7.25935C103.554 6.17268 104.714 5.28347 106.516 5.28347C110.046 5.28347 110.959 7.53068 110.959 10.4945V17.6814H106.985V11.285C106.985 9.80341 106.788 8.51929 105.134 8.51929C103.48 8.51929 102.962 9.90213 102.962 11.7054V17.6821H99.0117V0.641296H102.962V0.640625Z" fill="#D0C5FF"/>
</svg>
