<svg width="24" height="24" viewBox="0 0 24 24" fill="none" xmlns="http://www.w3.org/2000/svg">
<path d="M6.75966 19.122H3.2744C3.03163 19.122 2.95917 19.0201 3.01879 18.8124L6.73855 6.35398C7.02412 5.39744 7.93987 4.75385 9.01537 4.75385H10.8802C11.1467 4.75385 11.2012 4.82089 11.1359 5.06337L6.98561 18.9628C6.94681 19.0852 6.91058 19.1217 6.75938 19.1217L6.75966 19.122Z" fill="black"/>
<path d="M18.4064 5.61197L10.7047 11.5709C10.3977 11.8111 10.5192 11.9883 10.8878 11.9868H15.0249L13.0052 18.8236C12.9324 19.0603 12.9906 19.1322 13.2608 19.1322H16.7466C16.8989 19.1322 16.9275 19.1037 16.9731 18.9728L19.0465 11.9549L20.9628 5.40514C21.2052 4.50252 20.2578 4.12738 18.4066 5.61197H18.4064Z" fill="black"/>
</svg>
